<?xml version="1.0" encoding="utf-8"?>
<!-- Generator: Adobe Illustrator 15.0.2, SVG Export Plug-In . SVG Version: 6.00 Build 0)  -->
<!DOCTYPE svg PUBLIC "-//W3C//DTD SVG 1.1//EN" "http://www.w3.org/Graphics/SVG/1.1/DTD/svg11.dtd">
<svg version="1.1" id="Layer_1" xmlns="http://www.w3.org/2000/svg" xmlns:xlink="http://www.w3.org/1999/xlink" x="0px" y="0px"
	 width="16px" height="16px" viewBox="0 0 16 16" enable-background="new 0 0 16 16" xml:space="preserve">
<circle fill="#8CC63F" cx="8" cy="8" r="7"/>
<path fill="#FFFFFF" d="M12.084,7.416c0-0.318-0.266-0.582-0.584-0.582H9.166V4.5c0-0.318-0.264-0.584-0.582-0.584H7.416
	c-0.318,0-0.582,0.266-0.582,0.584v2.334H4.5c-0.318,0-0.584,0.264-0.584,0.582v1.168c0,0.318,0.266,0.582,0.584,0.582h2.334V11.5
	c0,0.318,0.264,0.584,0.582,0.584h1.168c0.318,0,0.582-0.266,0.582-0.584V9.166H11.5c0.318,0,0.584-0.264,0.584-0.582V7.416z"/>
</svg>
